Jump_normalized_Motion_pl15
version=1
nRows=10
nColumns=43
inDegrees=yes
endheader
time		pelvis_tilt		pelvis_list		pelvis_rotation		pelvis_tx		pelvis_ty		pelvis_tz		hip_flexion_r		hip_adduction_r		hip_rotation_r		knee_angle_r		ankle_angle_r		subtalar_angle_r		mtp_angle_r		hip_flexion_l		hip_adduction_l		hip_rotation_l		knee_angle_l		ankle_angle_l		subtalar_angle_l		mtp_angle_l		lumbar_extension		lumbar_bending		lumbar_rotation		neck_flexion		neck_lateral_bending		neck_rotation		arm_flex_r		arm_add_r		arm_rot_r		elbow_flex_r		pro_sup_r		wrist_flex_r		wrist_dev_r		hand_finger_flex_r		arm_flex_l		arm_add_l		arm_rot_l		elbow_flex_l		pro_sup_l		wrist_flex_l		wrist_dev_l		hand_finger_flex_l		
0.222500		2.122380		-15.996919		89.224211		0.059731		1.772616		1.898724		85.263824		5.982104		-1.622577		-133.326937		28.198954		1.202744		16.186325		86.033467		-10.106780		2.579793		-135.479334		23.749961		2.116737		21.091217		-59.945724		-0.792054		2.945733		42.995151		-1.928449		2.429075		41.462385		-16.543549		-4.328332		65.497754		101.308198		-2.928659		0.595740		32.040835		30.413118		-23.412402		-9.991099		71.380573		96.553553		-3.078214		0.668644		26.742459		
0.225606		2.169272		-16.181635		89.306239		0.060096		1.772780		1.896987		85.236203		5.989816		-1.728954		-133.307846		28.169289		1.207495		16.146037		85.977656		-10.112895		2.680641		-135.432340		23.811095		2.166573		21.101057		-59.720151		-0.753537		2.994096		43.071805		-1.931181		2.421563		42.194920		-16.420095		-4.236980		65.797295		101.379312		-2.914362		0.565788		32.079523		31.237259		-23.378324		-9.941096		71.728244		96.487249		-3.100462		0.615358		26.726786		
0.228712		2.282941		-16.318409		89.443007		0.060326		1.773114		1.895197		85.127345		5.971377		-1.914433		-133.266582		28.098349		1.218938		16.074836		85.898292		-10.095546		2.853858		-135.396505		23.949613		2.264135		21.116737		-59.563741		-0.627739		3.097609		43.281022		-1.930351		2.396180		42.939509		-16.365411		-4.095701		66.170669		101.526400		-2.890759		0.563732		32.155060		32.089847		-23.380573		-9.793860		72.106659		96.381694		-3.111894		0.575743		26.706420		
0.231818		2.408262		-16.414641		89.612375		0.060532		1.773420		1.893396		84.972293		5.909409		-2.134803		-133.243931		27.968878		1.303729		15.996850		85.818825		-10.026179		3.067916		-135.395597		24.100375		2.389622		21.129733		-59.438694		-0.485756		3.203427		43.437472		-1.921372		2.352010		43.641359		-16.359706		-3.933658		66.665521		101.655462		-2.880939		0.582654		32.246754		32.920445		-23.479085		-9.532681		72.584115		96.222245		-3.134576		0.542038		26.656902		
0.234924		2.448272		-16.550726		89.693332		0.060734		1.773570		1.891661		84.872546		5.889718		-2.262225		-133.240670		27.903774		1.364644		15.959738		85.792372		-9.985466		3.168933		-135.397156		24.157447		2.452060		21.135117		-59.222500		-0.436803		3.243730		43.387984		-1.932168		2.336097		44.326382		-16.263178		-3.842130		67.112632		101.691384		-2.884003		0.553936		32.291490		33.700943		-23.502753		-9.407755		73.071251		96.108925		-3.164634		0.476737		26.618138		
0.238030		2.466686		-16.730514		89.811775		0.060826		1.773695		1.889986		84.840380		5.812499		-2.335323		-133.255403		27.723672		1.584445		15.898051		85.865729		-9.876929		3.241328		-135.410043		24.153638		2.510631		21.136549		-58.971908		-0.369286		3.261500		43.499082		-1.866661		2.279448		45.042701		-16.299214		-3.588782		67.603274		101.706715		-2.887545		0.619222		32.397229		34.517865		-23.714837		-8.979007		73.604379		95.867111		-3.266546		0.463195		26.499035		
0.241136		2.413398		-16.942309		89.852800		0.060948		1.773803		1.888322		84.838838		5.776229		-2.320940		-133.267770		27.649401		1.736611		15.875052		85.954588		-9.807442		3.200771		-135.402572		24.079914		2.478674		21.131390		-58.658073		-0.383280		3.222732		43.470023		-1.834494		2.258105		45.756952		-16.260402		-3.378872		68.054611		101.655039		-2.917360		0.645367		32.466324		35.304196		-23.845865		-8.682263		74.140805		95.649886		-3.381494		0.420011		26.389193		
0.244242		2.348406		-17.168981		89.888605		0.061059		1.773970		1.886609		84.847148		5.729614		-2.271772		-133.271766		27.585261		1.896536		15.853451		86.039211		-9.745638		3.131615		-135.381559		23.988923		2.421142		21.123829		-58.325090		-0.404391		3.172748		43.451047		-1.796825		2.236415		46.479369		-16.229386		-3.141706		68.515117		101.583217		-2.967606		0.689654		32.546408		36.094574		-23.995897		-8.342918		74.686432		95.388506		-3.526734		0.384185		26.255901		
0.247348		1.935808		-17.411762		89.781642		0.061032		1.774067		1.884842		84.912626		5.627399		-1.769035		-133.383475		27.651250		2.280771		15.792797		85.992134		-9.664900		2.561699		-135.305243		23.735713		1.915824		21.062335		-57.972998		-0.672128		2.892981		43.438317		-1.736448		2.190759		47.118668		-16.345030		-2.640228		69.199757		100.903821		-3.777580		1.207811		33.003276		36.911190		-24.553238		-7.230843		75.313912		93.680812		-4.648783		0.542603		25.425346		
0.250455		1.927335		-17.606732		89.773140		0.061255		1.774556		1.882918		84.840173		5.651112		-1.756034		-133.322731		27.686525		2.276166		15.784380		85.919963		-9.744834		2.516463		-135.236250		23.782153		1.908665		21.053628		-57.658377		-0.698499		2.900668		43.382829		-1.740062		2.187404		47.910456		-16.220586		-2.443336		69.546574		100.840874		-3.853848		1.195907		33.090228		37.729264		-24.582896		-7.049096		75.801293		93.485471		-4.703601		0.493208		25.353028		
